<svg width="12" height="12" viewBox="0 0 12 12" fill="none" xmlns="http://www.w3.org/2000/svg">
<path d="M5.2275 1.8844C4.65975 1.8844 4.15875 2.15965 3.7485 2.55265C3.33863 2.9449 3.003 3.46127 2.72887 4.01215C2.18137 5.11427 1.875 6.34427 1.875 7.11002C1.875 8.16977 2.15625 9.09152 2.77238 9.66527C3.3675 10.2199 4.218 10.5 5.22713 10.5H5.22937C6.23887 10.5 7.089 10.2199 7.6845 9.6649C8.30063 9.09115 8.58262 8.1694 8.58262 7.10965C8.58262 6.34427 8.27625 5.11427 7.72837 4.01215C7.45462 3.4609 7.11863 2.9449 6.70913 2.55265C6.2985 2.15965 5.79712 1.8844 5.22937 1.8844H5.2275ZM8.60962 2.22565V2.22715C8.59431 2.22729 8.57907 2.2293 8.56425 2.23315C8.306 2.21954 8.04716 2.24367 7.79587 2.30477C7.59113 2.35502 7.38787 2.42965 7.1865 2.5159C7.275 2.6149 7.359 2.7184 7.44 2.82565L7.4415 2.8249C7.67992 3.14518 7.88854 3.48661 8.06475 3.8449C8.63738 4.9969 8.95725 6.24415 8.95725 7.10965C8.95725 8.22152 8.66738 9.2404 7.96575 9.91277L7.9635 9.9139C7.95563 9.9214 7.94888 9.93077 7.941 9.93827C7.91738 9.96002 7.89225 9.98027 7.8675 10.0013C7.75875 10.0946 7.64437 10.1805 7.524 10.2589C7.5255 10.2589 7.52662 10.2589 7.52775 10.2581C7.39575 10.3444 7.25738 10.422 7.1115 10.4899C7.29148 10.4873 7.47075 10.4667 7.64663 10.4284C8.46713 10.239 9.17212 9.58165 9.70237 8.66402C10.0852 8.00102 10.4362 6.78265 10.5131 5.5549C10.5518 4.94027 10.5188 4.32602 10.3601 3.78152C10.2015 3.23627 9.9045 2.74765 9.41325 2.46377C9.38798 2.4495 9.35974 2.44128 9.33075 2.43977C9.13292 2.33814 8.91834 2.27309 8.69738 2.24777C8.67475 2.23559 8.64986 2.22819 8.62425 2.22602L8.60962 2.22565ZM4.70738 2.79827C4.74673 2.79683 4.78554 2.80782 4.8183 2.82968C4.85106 2.85154 4.8761 2.88316 4.88988 2.92005C4.90366 2.95694 4.90547 2.99724 4.89506 3.03522C4.88465 3.0732 4.86254 3.10694 4.83188 3.13165C4.52925 3.3829 4.287 3.6349 4.15688 3.8179C4.05338 3.96415 3.96525 4.10927 3.89212 4.2529C3.85638 4.32273 3.8236 4.39405 3.79387 4.46665C3.78493 4.48993 3.77144 4.51119 3.75418 4.52919C3.73692 4.54718 3.71624 4.56156 3.69336 4.57147C3.67048 4.58138 3.64585 4.58663 3.62091 4.5869C3.59598 4.58718 3.57124 4.58248 3.54814 4.57307C3.52505 4.56367 3.50406 4.54975 3.48641 4.53214C3.46876 4.51453 3.45479 4.49357 3.44534 4.47049C3.43589 4.44742 3.43113 4.42269 3.43135 4.39776C3.43157 4.37282 3.43676 4.34818 3.44662 4.32527C3.47962 4.24465 3.51638 4.16402 3.55725 4.08302C3.63975 3.9214 3.73837 3.76015 3.85162 3.6004C4.01325 3.37277 4.27163 3.10915 4.59225 2.8429C4.62444 2.81532 4.66502 2.79983 4.70738 2.79827ZM3.40237 4.86002C3.4521 4.86002 3.49979 4.87978 3.53496 4.91494C3.57012 4.9501 3.58987 4.9978 3.58987 5.04752C3.58987 5.09725 3.57012 5.14494 3.53496 5.18011C3.49979 5.21527 3.4521 5.23502 3.40237 5.23502C3.35265 5.23502 3.30496 5.21527 3.26979 5.18011C3.23463 5.14494 3.21487 5.09725 3.21487 5.04752C3.21487 4.9978 3.23463 4.9501 3.26979 4.91494C3.30496 4.87978 3.35265 4.86002 3.40237 4.86002Z" fill="#747474"/>
</svg>
